<mxfile host="app.diagrams.net" agent="Mozilla/5.0 (Windows NT 10.0; Win64; x64) AppleWebKit/537.36 (KHTML, like Gecko) Chrome/140.0.0.0 Safari/537.36 Edg/140.0.0.0" version="28.2.3">
  <diagram name="PÃ¡gina-1" id="KIu5W_l9ptm_Zh6wsrh8">
    <mxGraphModel dx="2410" dy="1332" grid="1" gridSize="10" guides="1" tooltips="1" connect="1" arrows="1" fold="0" page="1" pageScale="1" pageWidth="1700" pageHeight="1100" math="0" shadow="0">
      <root>
        <mxCell id="0" />
        <mxCell id="1" parent="0" />
        <mxCell id="4EYfMJnAv6OS96t-4dd5-49" value="" style="rounded=0;whiteSpace=wrap;html=1;" vertex="1" parent="1">
          <mxGeometry x="540" y="520" width="180" height="70" as="geometry" />
        </mxCell>
        <mxCell id="4EYfMJnAv6OS96t-4dd5-4" value="Estudiante&lt;div&gt;&lt;br&gt;&lt;/div&gt;" style="shape=umlActor;verticalLabelPosition=bottom;verticalAlign=top;html=1;" vertex="1" parent="1">
          <mxGeometry x="470" y="100" width="30" height="60" as="geometry" />
        </mxCell>
        <mxCell id="4EYfMJnAv6OS96t-4dd5-5" value="Administrador&lt;div&gt;&lt;br&gt;&lt;/div&gt;" style="shape=umlActor;verticalLabelPosition=bottom;verticalAlign=top;html=1;" vertex="1" parent="1">
          <mxGeometry x="620" y="80" width="30" height="60" as="geometry" />
        </mxCell>
        <mxCell id="4EYfMJnAv6OS96t-4dd5-7" value="Docente&amp;nbsp;" style="shape=umlActor;verticalLabelPosition=bottom;verticalAlign=top;html=1;" vertex="1" parent="1">
          <mxGeometry x="750" y="100" width="30" height="60" as="geometry" />
        </mxCell>
        <mxCell id="4EYfMJnAv6OS96t-4dd5-8" value="Pagina web" style="html=1;dropTarget=0;whiteSpace=wrap;" vertex="1" parent="1">
          <mxGeometry x="572" y="360" width="126" height="40" as="geometry" />
        </mxCell>
        <mxCell id="4EYfMJnAv6OS96t-4dd5-9" value="" style="shape=module;jettyWidth=8;jettyHeight=4;" vertex="1" parent="4EYfMJnAv6OS96t-4dd5-8">
          <mxGeometry x="1" width="20" height="20" relative="1" as="geometry">
            <mxPoint x="-27" y="7" as="offset" />
          </mxGeometry>
        </mxCell>
        <mxCell id="4EYfMJnAv6OS96t-4dd5-11" value="" style="endArrow=open;endFill=1;endSize=12;html=1;rounded=0;entryX=0;entryY=0;entryDx=0;entryDy=0;exitX=0.75;exitY=1;exitDx=0;exitDy=0;" edge="1" parent="1" source="4EYfMJnAv6OS96t-4dd5-18" target="4EYfMJnAv6OS96t-4dd5-8">
          <mxGeometry width="160" relative="1" as="geometry">
            <mxPoint x="550" y="290" as="sourcePoint" />
            <mxPoint x="770" y="240" as="targetPoint" />
          </mxGeometry>
        </mxCell>
        <mxCell id="4EYfMJnAv6OS96t-4dd5-12" value="" style="endArrow=open;endFill=1;endSize=12;html=1;rounded=0;entryX=0.5;entryY=0;entryDx=0;entryDy=0;exitX=0.5;exitY=1;exitDx=0;exitDy=0;" edge="1" parent="1" source="4EYfMJnAv6OS96t-4dd5-24" target="4EYfMJnAv6OS96t-4dd5-8">
          <mxGeometry width="160" relative="1" as="geometry">
            <mxPoint x="635" y="310" as="sourcePoint" />
            <mxPoint x="655" y="270" as="targetPoint" />
          </mxGeometry>
        </mxCell>
        <mxCell id="4EYfMJnAv6OS96t-4dd5-14" value="" style="endArrow=open;endFill=1;endSize=12;html=1;rounded=0;entryX=1;entryY=0;entryDx=0;entryDy=0;exitX=0.25;exitY=1;exitDx=0;exitDy=0;" edge="1" parent="1" source="4EYfMJnAv6OS96t-4dd5-20" target="4EYfMJnAv6OS96t-4dd5-8">
          <mxGeometry width="160" relative="1" as="geometry">
            <mxPoint x="720" y="280" as="sourcePoint" />
            <mxPoint x="620" y="350" as="targetPoint" />
          </mxGeometry>
        </mxCell>
        <mxCell id="4EYfMJnAv6OS96t-4dd5-18" value="Usa la app" style="text;html=1;align=center;verticalAlign=middle;whiteSpace=wrap;rounded=0;" vertex="1" parent="1">
          <mxGeometry x="490" y="260" width="60" height="30" as="geometry" />
        </mxCell>
        <mxCell id="4EYfMJnAv6OS96t-4dd5-19" value="Gestiona el sistema&amp;nbsp;" style="text;html=1;align=center;verticalAlign=middle;whiteSpace=wrap;rounded=0;" vertex="1" parent="1">
          <mxGeometry x="605" y="230" width="60" height="30" as="geometry" />
        </mxCell>
        <mxCell id="4EYfMJnAv6OS96t-4dd5-20" value="Consulta datos&amp;nbsp;" style="text;html=1;align=center;verticalAlign=middle;whiteSpace=wrap;rounded=0;" vertex="1" parent="1">
          <mxGeometry x="710" y="250" width="60" height="30" as="geometry" />
        </mxCell>
        <mxCell id="4EYfMJnAv6OS96t-4dd5-21" value="" style="endArrow=none;html=1;rounded=0;exitX=0.5;exitY=0;exitDx=0;exitDy=0;" edge="1" parent="1" source="4EYfMJnAv6OS96t-4dd5-20">
          <mxGeometry width="50" height="50" relative="1" as="geometry">
            <mxPoint x="730" y="240" as="sourcePoint" />
            <mxPoint x="760" y="180" as="targetPoint" />
          </mxGeometry>
        </mxCell>
        <mxCell id="4EYfMJnAv6OS96t-4dd5-22" value="" style="endArrow=none;html=1;rounded=0;exitX=0.5;exitY=0;exitDx=0;exitDy=0;entryX=0.667;entryY=1.5;entryDx=0;entryDy=0;entryPerimeter=0;" edge="1" parent="1" source="4EYfMJnAv6OS96t-4dd5-18" target="4EYfMJnAv6OS96t-4dd5-4">
          <mxGeometry width="50" height="50" relative="1" as="geometry">
            <mxPoint x="490" y="250" as="sourcePoint" />
            <mxPoint x="490" y="200" as="targetPoint" />
          </mxGeometry>
        </mxCell>
        <mxCell id="4EYfMJnAv6OS96t-4dd5-23" value="" style="endArrow=none;html=1;rounded=0;exitX=0.5;exitY=0;exitDx=0;exitDy=0;" edge="1" parent="1" source="4EYfMJnAv6OS96t-4dd5-19">
          <mxGeometry width="50" height="50" relative="1" as="geometry">
            <mxPoint x="520" y="270" as="sourcePoint" />
            <mxPoint x="635" y="170" as="targetPoint" />
            <Array as="points" />
          </mxGeometry>
        </mxCell>
        <mxCell id="4EYfMJnAv6OS96t-4dd5-24" value="Internet" style="text;html=1;align=center;verticalAlign=middle;whiteSpace=wrap;rounded=0;" vertex="1" parent="1">
          <mxGeometry x="605" y="290" width="60" height="30" as="geometry" />
        </mxCell>
        <mxCell id="4EYfMJnAv6OS96t-4dd5-26" value="" style="endArrow=none;html=1;rounded=0;exitX=0.5;exitY=0;exitDx=0;exitDy=0;entryX=0.5;entryY=1;entryDx=0;entryDy=0;" edge="1" parent="1" source="4EYfMJnAv6OS96t-4dd5-24" target="4EYfMJnAv6OS96t-4dd5-19">
          <mxGeometry width="50" height="50" relative="1" as="geometry">
            <mxPoint x="630" y="250" as="sourcePoint" />
            <mxPoint x="630" y="190" as="targetPoint" />
            <Array as="points" />
          </mxGeometry>
        </mxCell>
        <mxCell id="4EYfMJnAv6OS96t-4dd5-27" value="" style="endArrow=none;html=1;rounded=0;" edge="1" parent="1" target="4EYfMJnAv6OS96t-4dd5-28">
          <mxGeometry width="50" height="50" relative="1" as="geometry">
            <mxPoint x="630" y="400" as="sourcePoint" />
            <mxPoint x="630" y="280" as="targetPoint" />
            <Array as="points">
              <mxPoint x="630" y="440" />
            </Array>
          </mxGeometry>
        </mxCell>
        <mxCell id="4EYfMJnAv6OS96t-4dd5-28" value="Nube (AWS/Azure/GCP)" style="text;html=1;align=center;verticalAlign=middle;whiteSpace=wrap;rounded=0;" vertex="1" parent="1">
          <mxGeometry x="600" y="440" width="60" height="30" as="geometry" />
        </mxCell>
        <mxCell id="4EYfMJnAv6OS96t-4dd5-29" value="" style="rounded=0;whiteSpace=wrap;html=1;" vertex="1" parent="1">
          <mxGeometry x="250" y="690" width="760" height="85" as="geometry" />
        </mxCell>
        <mxCell id="4EYfMJnAv6OS96t-4dd5-31" value="Servicios Documentos" style="html=1;dropTarget=0;whiteSpace=wrap;" vertex="1" parent="1">
          <mxGeometry x="270" y="712.5" width="180" height="40" as="geometry" />
        </mxCell>
        <mxCell id="4EYfMJnAv6OS96t-4dd5-32" value="" style="shape=module;jettyWidth=8;jettyHeight=4;" vertex="1" parent="4EYfMJnAv6OS96t-4dd5-31">
          <mxGeometry x="1" width="20" height="20" relative="1" as="geometry">
            <mxPoint x="-27" y="7" as="offset" />
          </mxGeometry>
        </mxCell>
        <mxCell id="4EYfMJnAv6OS96t-4dd5-39" value="Balanceador" style="html=1;dropTarget=0;whiteSpace=wrap;" vertex="1" parent="1">
          <mxGeometry x="559.5" y="544.5" width="141" height="40" as="geometry" />
        </mxCell>
        <mxCell id="4EYfMJnAv6OS96t-4dd5-40" value="" style="shape=module;jettyWidth=8;jettyHeight=4;" vertex="1" parent="4EYfMJnAv6OS96t-4dd5-39">
          <mxGeometry x="1" width="20" height="20" relative="1" as="geometry">
            <mxPoint x="-27" y="7" as="offset" />
          </mxGeometry>
        </mxCell>
        <mxCell id="4EYfMJnAv6OS96t-4dd5-42" value="Servicios Inscripciones" style="html=1;dropTarget=0;whiteSpace=wrap;" vertex="1" parent="1">
          <mxGeometry x="470" y="712.5" width="185" height="40" as="geometry" />
        </mxCell>
        <mxCell id="4EYfMJnAv6OS96t-4dd5-43" value="" style="shape=module;jettyWidth=8;jettyHeight=4;" vertex="1" parent="4EYfMJnAv6OS96t-4dd5-42">
          <mxGeometry x="1" width="20" height="20" relative="1" as="geometry">
            <mxPoint x="-27" y="7" as="offset" />
          </mxGeometry>
        </mxCell>
        <mxCell id="4EYfMJnAv6OS96t-4dd5-44" value="Servicios Pagos" style="html=1;dropTarget=0;whiteSpace=wrap;" vertex="1" parent="1">
          <mxGeometry x="665" y="712.5" width="155" height="40" as="geometry" />
        </mxCell>
        <mxCell id="4EYfMJnAv6OS96t-4dd5-45" value="" style="shape=module;jettyWidth=8;jettyHeight=4;" vertex="1" parent="4EYfMJnAv6OS96t-4dd5-44">
          <mxGeometry x="1" width="20" height="20" relative="1" as="geometry">
            <mxPoint x="-27" y="7" as="offset" />
          </mxGeometry>
        </mxCell>
        <mxCell id="4EYfMJnAv6OS96t-4dd5-46" value="Servicios Login" style="html=1;dropTarget=0;whiteSpace=wrap;" vertex="1" parent="1">
          <mxGeometry x="840" y="712.5" width="155" height="40" as="geometry" />
        </mxCell>
        <mxCell id="4EYfMJnAv6OS96t-4dd5-47" value="" style="shape=module;jettyWidth=8;jettyHeight=4;" vertex="1" parent="4EYfMJnAv6OS96t-4dd5-46">
          <mxGeometry x="1" width="20" height="20" relative="1" as="geometry">
            <mxPoint x="-27" y="7" as="offset" />
          </mxGeometry>
        </mxCell>
        <mxCell id="4EYfMJnAv6OS96t-4dd5-52" value="" style="endArrow=none;html=1;rounded=0;exitX=0.5;exitY=0;exitDx=0;exitDy=0;entryX=0.5;entryY=1;entryDx=0;entryDy=0;" edge="1" parent="1" source="4EYfMJnAv6OS96t-4dd5-49" target="4EYfMJnAv6OS96t-4dd5-28">
          <mxGeometry width="50" height="50" relative="1" as="geometry">
            <mxPoint x="570" y="500" as="sourcePoint" />
            <mxPoint x="620" y="450" as="targetPoint" />
          </mxGeometry>
        </mxCell>
        <mxCell id="4EYfMJnAv6OS96t-4dd5-53" value="Balanceador de Carga" style="text;html=1;align=center;verticalAlign=middle;whiteSpace=wrap;rounded=0;" vertex="1" parent="1">
          <mxGeometry x="559.5" y="520" width="138" height="30" as="geometry" />
        </mxCell>
        <mxCell id="4EYfMJnAv6OS96t-4dd5-57" value="" style="endArrow=none;html=1;rounded=0;exitX=0.144;exitY=0.006;exitDx=0;exitDy=0;exitPerimeter=0;" edge="1" parent="1" source="4EYfMJnAv6OS96t-4dd5-29">
          <mxGeometry width="50" height="50" relative="1" as="geometry">
            <mxPoint x="640" y="760" as="sourcePoint" />
            <mxPoint x="359" y="650" as="targetPoint" />
          </mxGeometry>
        </mxCell>
        <mxCell id="4EYfMJnAv6OS96t-4dd5-58" value="" style="endArrow=none;html=1;rounded=0;exitX=0.408;exitY=0;exitDx=0;exitDy=0;exitPerimeter=0;" edge="1" parent="1" source="4EYfMJnAv6OS96t-4dd5-29">
          <mxGeometry width="50" height="50" relative="1" as="geometry">
            <mxPoint x="400" y="701" as="sourcePoint" />
            <mxPoint x="560" y="650" as="targetPoint" />
          </mxGeometry>
        </mxCell>
        <mxCell id="4EYfMJnAv6OS96t-4dd5-59" value="" style="endArrow=none;html=1;rounded=0;exitX=0.657;exitY=0.005;exitDx=0;exitDy=0;exitPerimeter=0;" edge="1" parent="1" source="4EYfMJnAv6OS96t-4dd5-29">
          <mxGeometry width="50" height="50" relative="1" as="geometry">
            <mxPoint x="880" y="700" as="sourcePoint" />
            <mxPoint x="750" y="650" as="targetPoint" />
          </mxGeometry>
        </mxCell>
        <mxCell id="4EYfMJnAv6OS96t-4dd5-60" value="" style="endArrow=none;html=1;rounded=0;exitX=0.882;exitY=0.012;exitDx=0;exitDy=0;exitPerimeter=0;" edge="1" parent="1" source="4EYfMJnAv6OS96t-4dd5-29">
          <mxGeometry width="50" height="50" relative="1" as="geometry">
            <mxPoint x="900" y="700" as="sourcePoint" />
            <mxPoint x="920" y="650" as="targetPoint" />
          </mxGeometry>
        </mxCell>
        <mxCell id="4EYfMJnAv6OS96t-4dd5-61" value="" style="endArrow=none;html=1;rounded=0;" edge="1" parent="1">
          <mxGeometry width="50" height="50" relative="1" as="geometry">
            <mxPoint x="360" y="650" as="sourcePoint" />
            <mxPoint x="920" y="650" as="targetPoint" />
          </mxGeometry>
        </mxCell>
        <mxCell id="4EYfMJnAv6OS96t-4dd5-62" value="" style="endArrow=none;html=1;rounded=0;exitX=0.5;exitY=0;exitDx=0;exitDy=0;entryX=0.5;entryY=1;entryDx=0;entryDy=0;" edge="1" parent="1" source="4EYfMJnAv6OS96t-4dd5-29" target="4EYfMJnAv6OS96t-4dd5-49">
          <mxGeometry width="50" height="50" relative="1" as="geometry">
            <mxPoint x="740" y="710" as="sourcePoint" />
            <mxPoint x="741" y="670" as="targetPoint" />
          </mxGeometry>
        </mxCell>
        <mxCell id="4EYfMJnAv6OS96t-4dd5-63" value="" style="rounded=0;whiteSpace=wrap;html=1;" vertex="1" parent="1">
          <mxGeometry x="660" y="960" width="330" height="130" as="geometry" />
        </mxCell>
        <mxCell id="4EYfMJnAv6OS96t-4dd5-65" value="" style="strokeWidth=2;html=1;shape=mxgraph.flowchart.database;whiteSpace=wrap;fillColor=light-dark(#FFFFFF,#66FF66);" vertex="1" parent="1">
          <mxGeometry x="697.5" y="1020" width="112.5" height="50" as="geometry" />
        </mxCell>
        <mxCell id="4EYfMJnAv6OS96t-4dd5-66" value="" style="strokeWidth=2;html=1;shape=mxgraph.flowchart.database;whiteSpace=wrap;fillColor=light-dark(#FFFFFF,#3399FF);" vertex="1" parent="1">
          <mxGeometry x="850" y="1020" width="120" height="50" as="geometry" />
        </mxCell>
        <mxCell id="4EYfMJnAv6OS96t-4dd5-67" value="Archivos" style="text;html=1;align=center;verticalAlign=middle;whiteSpace=wrap;rounded=0;" vertex="1" parent="1">
          <mxGeometry x="723.75" y="1040" width="60" height="30" as="geometry" />
        </mxCell>
        <mxCell id="4EYfMJnAv6OS96t-4dd5-68" value="Base de Datos" style="text;html=1;align=center;verticalAlign=middle;whiteSpace=wrap;rounded=0;" vertex="1" parent="1">
          <mxGeometry x="860" y="1040" width="100" height="30" as="geometry" />
        </mxCell>
        <mxCell id="4EYfMJnAv6OS96t-4dd5-69" value="Almacenamiento" style="text;html=1;align=center;verticalAlign=middle;whiteSpace=wrap;rounded=0;" vertex="1" parent="1">
          <mxGeometry x="782.5" y="970" width="85" height="30" as="geometry" />
        </mxCell>
        <mxCell id="4EYfMJnAv6OS96t-4dd5-70" value="" style="endArrow=classic;html=1;rounded=0;entryX=0.5;entryY=0;entryDx=0;entryDy=0;entryPerimeter=0;exitX=0.75;exitY=1;exitDx=0;exitDy=0;" edge="1" parent="1" source="4EYfMJnAv6OS96t-4dd5-80" target="4EYfMJnAv6OS96t-4dd5-65">
          <mxGeometry width="50" height="50" relative="1" as="geometry">
            <mxPoint x="900" y="1040" as="sourcePoint" />
            <mxPoint x="950" y="990" as="targetPoint" />
          </mxGeometry>
        </mxCell>
        <mxCell id="4EYfMJnAv6OS96t-4dd5-77" value="" style="endArrow=classic;html=1;rounded=0;entryX=0.182;entryY=0.048;entryDx=0;entryDy=0;entryPerimeter=0;exitX=0.75;exitY=1;exitDx=0;exitDy=0;" edge="1" parent="1" source="4EYfMJnAv6OS96t-4dd5-84" target="4EYfMJnAv6OS96t-4dd5-66">
          <mxGeometry width="50" height="50" relative="1" as="geometry">
            <mxPoint x="900" y="1040" as="sourcePoint" />
            <mxPoint x="950" y="990" as="targetPoint" />
          </mxGeometry>
        </mxCell>
        <mxCell id="4EYfMJnAv6OS96t-4dd5-78" value="" style="endArrow=classic;html=1;rounded=0;entryX=0.5;entryY=0;entryDx=0;entryDy=0;entryPerimeter=0;exitX=0.5;exitY=1;exitDx=0;exitDy=0;" edge="1" parent="1" source="4EYfMJnAv6OS96t-4dd5-88" target="4EYfMJnAv6OS96t-4dd5-66">
          <mxGeometry width="50" height="50" relative="1" as="geometry">
            <mxPoint x="900" y="1040" as="sourcePoint" />
            <mxPoint x="950" y="990" as="targetPoint" />
          </mxGeometry>
        </mxCell>
        <mxCell id="4EYfMJnAv6OS96t-4dd5-79" value="" style="endArrow=classic;html=1;rounded=0;entryX=0.66;entryY=-0.046;entryDx=0;entryDy=0;entryPerimeter=0;exitX=0.5;exitY=1;exitDx=0;exitDy=0;" edge="1" parent="1" source="4EYfMJnAv6OS96t-4dd5-92" target="4EYfMJnAv6OS96t-4dd5-66">
          <mxGeometry width="50" height="50" relative="1" as="geometry">
            <mxPoint x="900" y="1040" as="sourcePoint" />
            <mxPoint x="950" y="990" as="targetPoint" />
          </mxGeometry>
        </mxCell>
        <mxCell id="4EYfMJnAv6OS96t-4dd5-80" value="Guarda Documentos&lt;div&gt;&lt;br&gt;&lt;/div&gt;" style="text;html=1;align=center;verticalAlign=middle;whiteSpace=wrap;rounded=0;" vertex="1" parent="1">
          <mxGeometry x="502.5" y="890" width="120" height="30" as="geometry" />
        </mxCell>
        <mxCell id="4EYfMJnAv6OS96t-4dd5-83" value="" style="endArrow=none;html=1;rounded=0;entryX=0.5;entryY=1;entryDx=0;entryDy=0;exitX=0.5;exitY=0;exitDx=0;exitDy=0;" edge="1" parent="1" source="4EYfMJnAv6OS96t-4dd5-80" target="4EYfMJnAv6OS96t-4dd5-31">
          <mxGeometry width="50" height="50" relative="1" as="geometry">
            <mxPoint x="450" y="840" as="sourcePoint" />
            <mxPoint x="500" y="790" as="targetPoint" />
          </mxGeometry>
        </mxCell>
        <mxCell id="4EYfMJnAv6OS96t-4dd5-84" value="Guarda inscripciones&amp;nbsp;" style="text;html=1;align=center;verticalAlign=middle;whiteSpace=wrap;rounded=0;" vertex="1" parent="1">
          <mxGeometry x="650" y="850" width="60" height="30" as="geometry" />
        </mxCell>
        <mxCell id="4EYfMJnAv6OS96t-4dd5-87" value="" style="endArrow=none;html=1;rounded=0;entryX=0.25;entryY=0;entryDx=0;entryDy=0;exitX=0.5;exitY=1;exitDx=0;exitDy=0;" edge="1" parent="1" source="4EYfMJnAv6OS96t-4dd5-42" target="4EYfMJnAv6OS96t-4dd5-84">
          <mxGeometry width="50" height="50" relative="1" as="geometry">
            <mxPoint x="900" y="1040" as="sourcePoint" />
            <mxPoint x="900" y="1000" as="targetPoint" />
          </mxGeometry>
        </mxCell>
        <mxCell id="4EYfMJnAv6OS96t-4dd5-88" value="Guarda pagos" style="text;html=1;align=center;verticalAlign=middle;whiteSpace=wrap;rounded=0;" vertex="1" parent="1">
          <mxGeometry x="780" y="840" width="60" height="30" as="geometry" />
        </mxCell>
        <mxCell id="4EYfMJnAv6OS96t-4dd5-90" value="" style="endArrow=none;html=1;rounded=0;exitX=0.25;exitY=0;exitDx=0;exitDy=0;entryX=0.5;entryY=1;entryDx=0;entryDy=0;" edge="1" parent="1" source="4EYfMJnAv6OS96t-4dd5-88" target="4EYfMJnAv6OS96t-4dd5-44">
          <mxGeometry width="50" height="50" relative="1" as="geometry">
            <mxPoint x="900" y="1040" as="sourcePoint" />
            <mxPoint x="950" y="990" as="targetPoint" />
          </mxGeometry>
        </mxCell>
        <mxCell id="4EYfMJnAv6OS96t-4dd5-92" value="Guarda usuarios" style="text;html=1;align=center;verticalAlign=middle;whiteSpace=wrap;rounded=0;" vertex="1" parent="1">
          <mxGeometry x="890" y="850" width="60" height="30" as="geometry" />
        </mxCell>
        <mxCell id="4EYfMJnAv6OS96t-4dd5-94" value="" style="endArrow=none;html=1;rounded=0;exitX=0.5;exitY=0;exitDx=0;exitDy=0;entryX=0.5;entryY=1;entryDx=0;entryDy=0;" edge="1" parent="1" source="4EYfMJnAv6OS96t-4dd5-92" target="4EYfMJnAv6OS96t-4dd5-46">
          <mxGeometry width="50" height="50" relative="1" as="geometry">
            <mxPoint x="900" y="1040" as="sourcePoint" />
            <mxPoint x="950" y="990" as="targetPoint" />
          </mxGeometry>
        </mxCell>
        <mxCell id="4EYfMJnAv6OS96t-4dd5-95" value="" style="verticalAlign=top;align=left;spacingTop=8;spacingLeft=2;spacingRight=12;shape=cube;size=10;direction=south;fontStyle=4;html=1;whiteSpace=wrap;" vertex="1" parent="1">
          <mxGeometry x="1140" y="860" width="330" height="120" as="geometry" />
        </mxCell>
        <mxCell id="4EYfMJnAv6OS96t-4dd5-96" value="Banco" style="html=1;dropTarget=0;whiteSpace=wrap;" vertex="1" parent="1">
          <mxGeometry x="1150" y="920" width="100" height="40" as="geometry" />
        </mxCell>
        <mxCell id="4EYfMJnAv6OS96t-4dd5-97" value="" style="shape=module;jettyWidth=8;jettyHeight=4;" vertex="1" parent="4EYfMJnAv6OS96t-4dd5-96">
          <mxGeometry x="1" width="20" height="20" relative="1" as="geometry">
            <mxPoint x="-27" y="7" as="offset" />
          </mxGeometry>
        </mxCell>
        <mxCell id="4EYfMJnAv6OS96t-4dd5-98" value="SMS" style="html=1;dropTarget=0;whiteSpace=wrap;" vertex="1" parent="1">
          <mxGeometry x="1260" y="920" width="90" height="40" as="geometry" />
        </mxCell>
        <mxCell id="4EYfMJnAv6OS96t-4dd5-99" value="" style="shape=module;jettyWidth=8;jettyHeight=4;" vertex="1" parent="4EYfMJnAv6OS96t-4dd5-98">
          <mxGeometry x="1" width="20" height="20" relative="1" as="geometry">
            <mxPoint x="-27" y="7" as="offset" />
          </mxGeometry>
        </mxCell>
        <mxCell id="4EYfMJnAv6OS96t-4dd5-100" value="Email" style="html=1;dropTarget=0;whiteSpace=wrap;" vertex="1" parent="1">
          <mxGeometry x="1360" y="920" width="90" height="40" as="geometry" />
        </mxCell>
        <mxCell id="4EYfMJnAv6OS96t-4dd5-101" value="" style="shape=module;jettyWidth=8;jettyHeight=4;" vertex="1" parent="4EYfMJnAv6OS96t-4dd5-100">
          <mxGeometry x="1" width="20" height="20" relative="1" as="geometry">
            <mxPoint x="-27" y="7" as="offset" />
          </mxGeometry>
        </mxCell>
        <mxCell id="4EYfMJnAv6OS96t-4dd5-103" value="Servicios de terceros" style="text;html=1;align=center;verticalAlign=middle;whiteSpace=wrap;rounded=0;" vertex="1" parent="1">
          <mxGeometry x="1235" y="870" width="140" height="50" as="geometry" />
        </mxCell>
        <mxCell id="4EYfMJnAv6OS96t-4dd5-104" value="" style="curved=1;endArrow=classic;html=1;rounded=0;entryX=0;entryY=0.75;entryDx=0;entryDy=0;exitX=0.5;exitY=1;exitDx=0;exitDy=0;" edge="1" parent="1" source="4EYfMJnAv6OS96t-4dd5-44" target="4EYfMJnAv6OS96t-4dd5-96">
          <mxGeometry width="50" height="50" relative="1" as="geometry">
            <mxPoint x="697.5" y="885" as="sourcePoint" />
            <mxPoint x="1177.5" y="1035" as="targetPoint" />
            <Array as="points">
              <mxPoint x="920" y="920" />
              <mxPoint x="960" y="940" />
              <mxPoint x="1020" y="960" />
            </Array>
          </mxGeometry>
        </mxCell>
        <mxCell id="4EYfMJnAv6OS96t-4dd5-106" value="" style="curved=1;endArrow=classic;html=1;rounded=0;entryX=0.5;entryY=1;entryDx=0;entryDy=0;exitX=0.5;exitY=1;exitDx=0;exitDy=0;" edge="1" parent="1" source="4EYfMJnAv6OS96t-4dd5-46" target="4EYfMJnAv6OS96t-4dd5-103">
          <mxGeometry width="50" height="50" relative="1" as="geometry">
            <mxPoint x="943" y="683" as="sourcePoint" />
            <mxPoint x="1350" y="880" as="targetPoint" />
            <Array as="points">
              <mxPoint x="1120" y="850" />
              <mxPoint x="1160" y="870" />
              <mxPoint x="1220" y="890" />
            </Array>
          </mxGeometry>
        </mxCell>
        <mxCell id="4EYfMJnAv6OS96t-4dd5-107" value="" style="curved=1;endArrow=classic;html=1;rounded=0;entryX=0.5;entryY=0;entryDx=0;entryDy=0;exitX=0.5;exitY=1;exitDx=0;exitDy=0;" edge="1" parent="1" target="4EYfMJnAv6OS96t-4dd5-100">
          <mxGeometry width="50" height="50" relative="1" as="geometry">
            <mxPoint x="920" y="752.5" as="sourcePoint" />
            <mxPoint x="1307" y="919.5" as="targetPoint" />
            <Array as="points">
              <mxPoint x="1060" y="780" />
              <mxPoint x="1160" y="800" />
              <mxPoint x="1250" y="830" />
              <mxPoint x="1330" y="860" />
              <mxPoint x="1360" y="880" />
            </Array>
          </mxGeometry>
        </mxCell>
        <mxCell id="4EYfMJnAv6OS96t-4dd5-108" value="" style="whiteSpace=wrap;html=1;shape=mxgraph.basic.document" vertex="1" parent="1">
          <mxGeometry x="840" y="440" width="190" height="95" as="geometry" />
        </mxCell>
        <mxCell id="4EYfMJnAv6OS96t-4dd5-110" value="En la nube:&lt;div&gt;- Crece automaticamente&amp;nbsp;&lt;/div&gt;&lt;div&gt;- Siempre disponible&lt;/div&gt;&lt;div&gt;- Seguro&amp;nbsp;&lt;/div&gt;&lt;div&gt;- Escalable&amp;nbsp;&lt;/div&gt;" style="text;html=1;align=center;verticalAlign=middle;whiteSpace=wrap;rounded=0;" vertex="1" parent="1">
          <mxGeometry x="795" y="480" width="280" height="30" as="geometry" />
        </mxCell>
        <mxCell id="4EYfMJnAv6OS96t-4dd5-113" value="" style="endArrow=none;dashed=1;html=1;rounded=0;entryX=0.163;entryY=-0.121;entryDx=0;entryDy=0;entryPerimeter=0;" edge="1" parent="1" target="4EYfMJnAv6OS96t-4dd5-110">
          <mxGeometry width="50" height="50" relative="1" as="geometry">
            <mxPoint x="680" y="460" as="sourcePoint" />
            <mxPoint x="1170" y="500" as="targetPoint" />
          </mxGeometry>
        </mxCell>
        <mxCell id="4EYfMJnAv6OS96t-4dd5-114" value="" style="endArrow=none;dashed=1;html=1;rounded=0;" edge="1" parent="1">
          <mxGeometry width="50" height="50" relative="1" as="geometry">
            <mxPoint x="1010" y="724.5" as="sourcePoint" />
            <mxPoint x="1220" y="670" as="targetPoint" />
          </mxGeometry>
        </mxCell>
        <mxCell id="4EYfMJnAv6OS96t-4dd5-115" value="" style="whiteSpace=wrap;html=1;shape=mxgraph.basic.document" vertex="1" parent="1">
          <mxGeometry x="1220" y="630" width="190" height="80" as="geometry" />
        </mxCell>
        <mxCell id="4EYfMJnAv6OS96t-4dd5-117" value="Microservicios:&lt;br&gt;&lt;div&gt;- Cada uno independiente&amp;nbsp;&amp;nbsp;&lt;/div&gt;&lt;div&gt;- Se actualizan por separado&lt;/div&gt;&lt;div&gt;- Escala segun necesidad&lt;/div&gt;" style="text;html=1;align=center;verticalAlign=middle;whiteSpace=wrap;rounded=0;" vertex="1" parent="1">
          <mxGeometry x="1165" y="655" width="280" height="30" as="geometry" />
        </mxCell>
        <mxCell id="4EYfMJnAv6OS96t-4dd5-119" value="" style="whiteSpace=wrap;html=1;shape=mxgraph.basic.document" vertex="1" parent="1">
          <mxGeometry x="240" y="980" width="190" height="80" as="geometry" />
        </mxCell>
        <mxCell id="4EYfMJnAv6OS96t-4dd5-120" value="Base de Datos&amp;nbsp;&lt;div&gt;- No se cae&amp;nbsp;&lt;/div&gt;&lt;div&gt;- Respaldos automaticos&lt;/div&gt;" style="text;html=1;align=center;verticalAlign=middle;whiteSpace=wrap;rounded=0;" vertex="1" parent="1">
          <mxGeometry x="180" y="1005" width="280" height="30" as="geometry" />
        </mxCell>
        <mxCell id="4EYfMJnAv6OS96t-4dd5-121" value="" style="endArrow=none;dashed=1;html=1;rounded=0;entryX=0;entryY=0.5;entryDx=0;entryDy=0;" edge="1" parent="1" target="4EYfMJnAv6OS96t-4dd5-63">
          <mxGeometry width="50" height="50" relative="1" as="geometry">
            <mxPoint x="430" y="1034.5" as="sourcePoint" />
            <mxPoint x="640" y="980" as="targetPoint" />
          </mxGeometry>
        </mxCell>
        <mxCell id="4EYfMJnAv6OS96t-4dd5-122" value="Diagrama de despliegue - Sistema Universitario&amp;nbsp;" style="text;html=1;align=center;verticalAlign=middle;whiteSpace=wrap;rounded=0;" vertex="1" parent="1">
          <mxGeometry x="452.5" y="10" width="415" height="90" as="geometry" />
        </mxCell>
      </root>
    </mxGraphModel>
  </diagram>
</mxfile>
